<svg xmlns="http://www.w3.org/2000/svg" viewBox="0 0 64 64" role="img" aria-label="Geek Infiltration">
  <rect width="64" height="64" fill="#070c13" />
  <path
    d="M32 7c.8 4 1.2 5.3 2.8 6.1 1.6.8 2.9 1.2 6.7 2.4-3.8 1.2-5.1 1.6-6.7 2.4-1.6.8-2 2.1-2.8 6.1-.8-4-1.2-5.3-2.8-6.1-1.6-.8-2.9-1.2-6.7-2.4 3.8-1.2 5.1-1.6 6.7-2.4C30.8 12.3 31.2 11 32 7Z"
    fill="#eef3f8"
  />
  <path d="m32 26 16 16-4 4-12-12-12 12-4-4 16-16Z" fill="#399cff" />
  <path d="M16 50Q32 33 48 50l-4 4Q32 43 20 54l-4-4Z" fill="#31c978" />
</svg>
