<?xml version="1.0" standalone="no"?>
<!DOCTYPE svg PUBLIC "-//W3C//DTD SVG 20010904//EN"
 "http://www.w3.org/TR/2001/REC-SVG-20010904/DTD/svg10.dtd">
<svg version="1.0" xmlns="http://www.w3.org/2000/svg"
 width="1024.000000pt" height="1024.000000pt" viewBox="0 0 1024.000000 1024.000000"
 preserveAspectRatio="xMidYMid meet">
<metadata>
Created by potrace 1.14, written by Peter Selinger 2001-2017
</metadata>
<g transform="translate(0.000000,1024.000000) scale(0.100000,-0.100000)"
fill="#000000" stroke="none">
<path d="M4615 9423 c-109 -5 -288 -25 -410 -44 -120 -20 -485 -105 -495 -116
-6 -7 14 -3 185 36 181 41 195 43 188 23 -4 -10 -2 -13 5 -8 6 3 14 1 18 -5 4
-8 3 -9 -4 -5 -7 4 -12 4 -13 -1 0 -4 -2 -16 -4 -26 -2 -13 1 -17 12 -13 22 9
14 -53 -11 -84 -16 -18 -17 -21 -3 -11 26 21 34 4 9 -19 -12 -12 -22 -27 -22
-35 0 -11 5 -10 21 6 11 11 23 18 27 15 3 -4 -3 -13 -14 -21 -19 -14 -19 -14
1 -15 18 -1 17 -2 -5 -14 -14 -8 -29 -12 -34 -9 -5 4 -6 1 -2 -5 5 -9 13 -9
27 -2 13 7 19 7 19 0 0 -5 -6 -10 -14 -10 -7 0 -19 -7 -26 -15 -14 -17 -7 -19
19 -5 16 8 18 5 18 -23 0 -18 -2 -24 -4 -14 -4 15 -23 25 -23 11 0 -11 23 -49
34 -56 7 -5 5 -8 -6 -8 -9 0 -19 6 -21 13 -4 9 -6 9 -6 -1 -1 -7 6 -15 14 -18
8 -4 12 -10 9 -15 -3 -5 1 -9 8 -9 11 0 11 -2 0 -9 -9 -5 -11 -17 -7 -34 4
-15 11 -25 15 -22 5 3 11 1 15 -5 4 -6 -6 -10 -22 -11 -27 0 -27 -1 -5 -11 12
-6 22 -15 22 -20 0 -5 -4 -6 -10 -3 -5 3 -10 1 -10 -6 0 -8 -3 -9 -13 0 -14
11 -27 5 -27 -11 0 -5 5 -6 10 -3 7 4 9 -3 6 -19 -3 -15 -1 -24 5 -21 5 4 9 1
9 -5 0 -6 5 -8 11 -5 6 5 4 12 -8 21 -10 7 -13 14 -6 14 6 0 15 -5 18 -10 4
-6 11 -7 17 -4 6 4 5 10 -3 15 -10 6 -10 9 -2 9 24 0 22 -18 -7 -49 -17 -17
-34 -31 -39 -31 -5 0 -13 -9 -16 -20 -4 -11 -11 -18 -16 -15 -5 3 -6 -2 -2
-11 5 -14 2 -16 -15 -12 -15 4 -22 2 -22 -8 0 -8 -9 -14 -21 -14 -11 0 -18 -4
-15 -8 3 -5 -66 -32 -152 -61 -199 -66 -274 -96 -285 -116 -4 -8 -12 -13 -18
-10 -5 4 -9 1 -9 -5 0 -7 -8 -9 -21 -5 -16 5 -19 4 -14 -6 6 -9 3 -10 -11 -5
-10 4 -15 4 -11 -1 5 -4 -43 -33 -105 -63 -235 -116 -545 -318 -663 -431 -33
-31 -69 -59 -80 -61 -11 -2 -24 -12 -29 -23 -5 -11 -58 -63 -117 -115 -59 -52
-108 -101 -108 -109 -1 -8 -3 -12 -6 -9 -7 7 -69 -54 -112 -109 -18 -24 -55
-66 -83 -95 -27 -28 -85 -102 -127 -162 -43 -61 -83 -115 -90 -119 -8 -5 -11
-12 -8 -16 2 -5 -4 -16 -14 -26 -11 -9 -32 -41 -47 -71 -15 -30 -31 -54 -35
-54 -4 0 -21 -28 -37 -62 -16 -35 -44 -94 -62 -132 -24 -50 -35 -65 -42 -55
-7 10 -8 8 -3 -8 4 -13 -5 -45 -24 -85 -41 -87 -83 -200 -131 -353 -23 -71
-48 -145 -56 -163 -8 -18 -14 -41 -14 -51 0 -10 -3 -21 -7 -25 -10 -9 -33 -75
-39 -111 -7 -35 -41 -95 -55 -95 -6 0 -8 4 -4 9 3 5 0 13 -6 17 -8 4 -9 3 -5
-4 4 -7 2 -12 -5 -12 -7 0 -5 -8 6 -20 16 -18 16 -20 2 -20 -10 0 -17 -8 -17
-17 0 -15 -2 -16 -10 -3 -8 12 -12 11 -30 -8 -11 -12 -26 -22 -32 -22 -7 0 -7
-5 1 -14 9 -11 9 -16 0 -22 -8 -4 -9 -3 -5 4 10 16 -7 15 -23 0 -10 -11 -11
-10 -5 5 5 13 2 16 -10 11 -12 -4 -15 -13 -10 -28 4 -11 3 -18 -1 -14 -5 4
-14 3 -21 -3 -8 -6 -21 -9 -29 -5 -22 8 -70 -15 -53 -26 10 -6 9 -8 -4 -8 -9
0 -21 6 -25 14 -10 16 -53 4 -53 -16 0 -9 3 -9 12 0 15 15 42 16 33 2 -4 -6
-11 -7 -17 -4 -7 5 -9 1 -5 -9 4 -11 2 -14 -9 -10 -9 3 -14 0 -12 -7 2 -7 -4
-15 -12 -17 -9 -3 -11 -1 -5 4 17 14 15 28 -7 42 -11 7 -17 8 -13 2 3 -6 2
-11 -3 -11 -5 0 -12 -9 -15 -21 -3 -12 -10 -18 -16 -15 -5 4 -12 2 -16 -4 -4
-7 -12 -7 -25 0 -26 14 -34 12 -21 -4 9 -11 8 -15 -4 -20 -9 -3 -13 -2 -10 4
3 6 -1 10 -10 10 -9 0 -13 -4 -10 -10 3 -5 -3 -10 -13 -10 -15 0 -19 5 -16 23
2 12 1 16 -2 7 -13 -28 -37 -45 -61 -42 -18 3 -22 0 -16 -14 4 -12 3 -15 -5
-10 -14 8 -42 -16 -42 -36 0 -10 -2 -10 -8 -1 -6 9 -12 8 -24 -7 -16 -18 -15
-19 5 -23 l22 -4 -22 -2 c-13 0 -23 -6 -23 -12 0 -5 6 -7 12 -4 7 4 6 1 -3 -7
-9 -7 -14 -20 -11 -28 3 -11 2 -12 -8 -4 -16 16 0 223 35 468 8 55 13 102 10
104 -3 3 -5 1 -5 -4 0 -5 -7 -47 -15 -94 -21 -124 -53 -427 -60 -565 -3 -66
-8 -137 -11 -157 -17 -111 51 -694 112 -963 41 -180 145 -535 164 -560 4 -5
29 -64 55 -130 26 -66 64 -154 85 -195 22 -41 50 -100 63 -131 77 -176 385
-640 534 -804 35 -38 89 -99 121 -135 101 -114 383 -377 470 -438 26 -18 49
-37 50 -42 2 -6 10 -10 17 -10 8 0 22 -11 33 -25 11 -14 25 -25 30 -25 6 0 20
-12 31 -26 22 -28 111 -99 111 -89 0 4 13 -5 30 -18 32 -27 131 -88 300 -183
174 -98 361 -181 563 -250 106 -36 217 -73 247 -84 81 -27 229 -68 275 -74 96
-14 147 -29 152 -43 4 -10 14 -13 34 -9 16 3 30 2 33 -3 3 -4 26 -8 52 -8 25
-1 49 -5 53 -9 3 -5 26 -10 51 -11 52 -2 121 -9 165 -17 143 -26 676 -27 900
-2 564 63 1072 208 1515 431 194 97 421 225 470 264 19 15 64 47 100 71 208
140 574 466 744 664 188 218 361 464 461 651 27 50 68 122 92 161 23 39 43 74
43 78 0 4 38 84 85 179 96 196 185 439 221 607 13 63 35 158 49 210 80 310
127 810 106 1135 -33 509 -130 939 -321 1420 -40 101 -213 453 -278 566 -217
374 -525 758 -822 1023 -202 180 -499 408 -620 476 -30 17 -91 53 -135 79
-251 152 -625 311 -945 401 -208 59 -482 120 -540 120 -17 0 -55 7 -83 15 -94
26 -571 42 -852 28z m-480 -172 c3 -5 2 -12 -3 -15 -5 -3 -9 1 -9 9 0 17 3 19
12 6z m2 -123 c-3 -7 -5 -2 -5 12 0 14 2 19 5 13 2 -7 2 -19 0 -25z m12 -162
c-3 -3 -11 5 -18 17 -13 21 -12 21 5 5 10 -10 16 -20 13 -22z m21 -86 c0 -5
-2 -10 -4 -10 -3 0 -8 5 -11 10 -3 6 -1 10 4 10 6 0 11 -4 11 -10z m1360 -409
c41 -6 93 -13 115 -16 94 -11 115 -16 215 -48 251 -81 540 -203 540 -228 0 -5
4 -8 9 -4 5 3 16 -2 24 -10 9 -8 18 -15 21 -15 12 0 312 -172 341 -195 16 -14
64 -49 105 -79 89 -64 275 -224 380 -328 194 -190 432 -499 543 -703 35 -66
78 -145 95 -175 34 -62 149 -347 194 -485 58 -177 128 -507 157 -734 26 -201
29 -532 6 -721 -8 -69 -35 -219 -60 -335 -26 -115 -46 -219 -47 -230 -1 -24
-8 -51 -48 -182 -31 -100 -49 -136 -35 -70 12 52 -2 27 -28 -53 -14 -41 -40
-111 -59 -155 -19 -45 -32 -87 -30 -94 6 -18 -58 -142 -70 -135 -5 3 -8 0 -7
-7 4 -20 -31 -90 -42 -83 -5 3 -7 -1 -4 -8 9 -26 -213 -355 -271 -403 -6 -5
-33 -37 -60 -70 -83 -105 -237 -263 -358 -368 -33 -29 -80 -70 -105 -92 -96
-84 -312 -237 -436 -310 -177 -103 -559 -275 -612 -275 -12 0 -23 -4 -25 -8
-6 -16 -207 -72 -383 -107 -237 -47 -409 -65 -641 -65 -370 0 -676 49 -1039
167 -187 61 -357 133 -535 226 -94 50 -302 179 -355 222 -22 17 -69 51 -105
75 -80 54 -232 184 -363 310 -54 52 -101 97 -105 100 -4 3 -53 60 -108 126
-174 208 -285 377 -399 604 -24 49 -48 90 -52 92 -8 3 -67 146 -117 281 -14
37 -30 95 -36 130 -7 34 -20 87 -31 117 -10 30 -19 66 -19 81 0 15 -4 29 -9
31 -13 5 -40 122 -29 129 5 3 2 9 -7 13 -9 3 -15 14 -14 23 2 10 -3 36 -11 58
-8 22 -15 46 -16 53 -1 8 -5 16 -8 19 -2 3 -1 16 4 29 6 14 6 26 0 29 -5 3 -9
13 -9 23 0 9 -1 26 -4 37 -2 11 0 35 4 55 7 28 5 38 -9 48 -13 10 -14 15 -5
20 15 10 24 122 9 122 -5 0 0 10 13 21 16 15 20 24 12 32 -16 16 -14 27 3 21
11 -4 13 0 9 15 -3 12 -10 21 -15 21 -6 0 -7 9 -3 23 4 12 7 30 6 40 0 9 5 17
12 17 8 0 8 3 -1 12 -17 17 -15 29 3 22 10 -4 15 0 15 11 0 9 -4 13 -10 10 -5
-3 -10 -1 -10 4 0 6 5 11 10 11 15 0 12 30 -2 31 -7 0 -4 4 7 9 l20 9 -20 0
c-17 1 -17 3 -5 11 8 5 10 10 4 10 -6 0 -11 6 -11 14 0 9 6 12 16 8 14 -5 14
-4 2 12 -12 15 -13 19 -1 26 10 6 11 12 4 22 -15 19 -10 78 7 89 11 7 10 9 -5
9 -16 0 -17 3 -8 12 18 18 15 41 -4 34 -13 -5 -14 -4 -6 7 7 8 9 17 5 20 -3 4
-2 7 3 7 11 0 11 68 0 93 -5 10 -6 21 -2 24 3 4 6 -1 6 -9 0 -9 7 -19 16 -22
14 -5 15 -4 5 8 -18 21 -24 108 -9 118 10 6 10 8 0 8 -10 0 -10 4 2 15 12 12
13 22 6 41 -12 31 -12 37 -1 30 5 -4 7 7 4 25 -2 17 -1 38 3 47 4 10 8 28 9
42 1 14 14 67 30 119 15 51 28 98 29 105 1 6 5 17 9 24 5 6 4 12 -2 12 -10 0
-44 -102 -57 -171 -4 -19 -13 -45 -19 -59 -7 -14 -16 -43 -19 -64 -4 -22 -11
-44 -16 -50 -5 -7 -10 -24 -12 -38 -7 -53 -18 -41 -12 13 7 74 88 387 114 444
5 11 14 40 21 65 6 25 14 52 17 60 3 8 6 20 7 25 2 6 26 59 54 119 28 59 51
112 51 115 0 12 93 188 145 275 151 255 434 573 720 811 33 28 62 52 65 56 3
3 28 21 55 40 28 18 52 36 55 39 22 22 100 80 108 80 5 0 12 7 16 15 3 8 12
15 20 15 8 0 16 4 18 9 2 5 41 29 88 53 111 59 183 98 246 136 59 35 122 52
108 31 -6 -12 -5 -12 8 -1 9 7 25 15 37 17 24 4 91 35 91 42 0 2 -10 2 -22 -2
-22 -6 -22 -5 -5 9 10 8 29 12 43 10 17 -3 24 0 24 11 0 8 3 14 8 13 4 -1 17
3 30 10 14 8 22 9 22 2 0 -5 4 -10 10 -10 5 0 7 7 3 17 -5 14 -1 15 26 10 20
-4 30 -3 26 3 -3 6 0 11 7 11 7 1 23 3 35 4 13 1 29 8 38 15 8 7 15 9 15 5 0
-5 8 -1 18 7 9 8 33 15 52 17 19 1 37 7 41 13 4 6 19 8 33 6 14 -3 26 -2 26 2
0 9 100 31 111 24 5 -3 9 -1 9 4 0 8 47 23 66 21 4 0 11 5 15 13 7 10 9 10 9
0 0 -8 8 -10 23 -7 12 3 65 7 117 11 52 3 140 9 195 13 132 11 810 4 905 -8z
m-1945 -239 c-14 -12 -65 -32 -65 -26 0 3 15 11 33 19 37 17 45 18 32 7z
m-2275 -2509 c0 -21 -3 -24 -9 -14 -5 8 -7 20 -4 28 8 21 13 15 13 -14z m-445
-203 c2 -4 -7 -5 -20 -2 -14 2 -27 8 -30 12 -2 4 7 5 20 2 14 -2 27 -8 30 -12z
m-225 -170 c0 -5 -5 -10 -11 -10 -5 0 -7 5 -4 10 3 6 8 10 11 10 2 0 4 -4 4
-10z m7755 -940 c-15 -113 -72 -359 -123 -530 -35 -117 -225 -522 -254 -541
-5 -3 -8 -10 -7 -15 7 -25 -177 -320 -271 -434 -25 -30 -52 -64 -60 -76 -25
-35 -152 -176 -199 -219 -24 -22 -86 -82 -138 -132 -52 -51 -98 -93 -102 -93
-4 0 -27 -18 -50 -40 -23 -22 -78 -65 -120 -95 -43 -30 -84 -62 -92 -71 -7 -9
-22 -20 -34 -25 -11 -5 -43 -24 -72 -43 -44 -30 -53 -33 -63 -20 -10 11 -9 18
1 31 15 19 -15 2 -131 -73 -117 -75 -203 -122 -305 -168 -55 -25 -127 -59
-160 -75 -33 -17 -65 -31 -71 -31 -6 0 -36 -11 -67 -24 -89 -40 -339 -106
-402 -106 -22 -1 -79 -9 -127 -19 -49 -10 -88 -15 -88 -11 0 5 32 14 70 20 39
6 70 16 70 22 0 6 11 8 25 6 13 -3 23 -2 21 1 -3 4 31 13 75 22 63 12 76 13
68 2 -13 -14 -9 -16 15 -7 9 3 14 9 11 13 -2 4 9 5 26 3 23 -3 28 -1 23 11 -4
12 12 21 73 40 43 14 114 40 158 57 44 18 98 39 120 47 69 24 267 124 357 179
48 30 90 54 93 54 18 0 320 221 450 330 280 234 579 577 746 855 35 58 75 125
89 148 42 69 149 302 197 426 86 223 124 343 158 494 19 84 43 186 54 227 10
41 22 111 25 155 17 209 21 213 24 20 2 -133 -2 -227 -13 -315z m-1617 -2364
c-7 -8 -15 -12 -17 -11 -5 6 10 25 20 25 5 0 4 -6 -3 -14z m-28 -28 c0 -6 -3
-8 -7 -5 -3 4 -13 1 -22 -6 -14 -11 -14 -10 -2 6 15 20 31 22 31 5z m-50 -28
c0 -5 -5 -10 -11 -10 -5 0 -7 5 -4 10 3 6 8 10 11 10 2 0 4 -4 4 -10z m-40
-25 c-7 -8 -17 -15 -23 -15 -6 0 -2 7 9 15 25 19 30 19 14 0z m-1221 -376
c-16 -10 -23 -4 -14 10 3 6 11 8 17 5 6 -4 5 -9 -3 -15z m-49 -9 c-8 -5 -31
-9 -50 -9 l-35 1 30 8 c17 4 39 8 50 9 16 1 17 -1 5 -9z"/>
<path d="M4710 8269 c-528 -36 -1057 -213 -1523 -510 -239 -152 -377 -261
-568 -450 -97 -96 -197 -203 -224 -239 -51 -69 -22 -43 59 54 67 79 307 314
382 373 169 134 421 294 611 388 166 82 208 99 418 173 188 67 471 135 425
103 -8 -6 -20 -11 -27 -11 -6 0 -24 -5 -40 -11 -19 -7 -24 -12 -14 -18 10 -6
9 -12 -4 -25 -16 -16 -40 -13 -30 4 9 15 -14 22 -32 10 -16 -10 -16 -10 2 -5
17 4 21 0 23 -21 1 -14 -2 -23 -8 -19 -5 3 -7 0 -4 -8 3 -8 1 -18 -5 -21 -6
-4 -8 -13 -5 -20 3 -8 1 -17 -5 -21 -6 -3 -11 2 -11 12 0 15 -2 16 -10 3 -6
-9 -5 -17 1 -21 7 -4 5 -12 -5 -22 -18 -18 -21 -34 -6 -39 7 -2 5 -11 -5 -23
-12 -16 -14 -17 -9 -2 3 9 1 17 -4 17 -6 0 -9 -10 -7 -21 3 -12 1 -27 -2 -33
-4 -6 -8 -22 -9 -36 -2 -41 -3 -43 -19 -30 -13 11 -14 10 -9 -4 3 -9 1 -23 -6
-31 -7 -8 -9 -15 -5 -15 4 0 14 8 21 18 12 15 15 15 23 2 6 -8 8 -17 5 -19 -3
-3 -9 0 -13 8 -11 17 -23 -12 -14 -34 3 -9 -3 -25 -13 -36 -16 -17 -16 -22 -4
-29 11 -7 8 -10 -12 -10 -16 0 -28 5 -28 12 0 6 -3 8 -6 5 -4 -4 -2 -13 5 -21
9 -11 9 -15 -1 -19 -8 -3 -5 -6 7 -7 18 -1 18 -2 4 -13 -9 -7 -15 -22 -14 -35
1 -14 -10 -36 -27 -54 -26 -28 -27 -33 -12 -41 11 -6 19 -5 25 4 5 8 9 10 9 4
-1 -15 -36 -55 -49 -55 -6 0 -11 -7 -11 -16 0 -8 -4 -12 -10 -9 -12 8 -13 -1
-2 -23 6 -12 3 -23 -11 -35 -19 -19 -19 -18 -12 2 3 12 2 21 -3 21 -5 0 -12
-10 -15 -22 -5 -18 -8 -19 -21 -8 -10 7 -16 8 -16 2 0 -6 9 -14 20 -17 20 -6
28 -35 10 -35 -6 0 -17 -18 -26 -40 -9 -22 -19 -40 -23 -40 -17 0 -29 -46 -18
-66 9 -17 9 -18 -6 -5 -9 7 -17 22 -17 32 0 10 -3 20 -7 22 -5 3 -8 -6 -8 -19
0 -13 3 -24 7 -24 11 0 5 -23 -8 -35 -7 -5 -17 -26 -23 -47 -10 -30 -18 -38
-48 -45 -20 -5 -38 -14 -39 -21 -1 -7 0 -8 3 -2 7 15 23 12 23 -5 0 -7 -8 -19
-17 -25 -15 -9 -14 -10 7 -4 20 5 22 4 13 -6 -6 -7 -9 -18 -7 -25 3 -7 0 -16
-7 -21 -7 -4 -10 -3 -5 4 3 6 2 13 -4 17 -10 6 -13 -3 -13 -37 0 -10 -4 -15
-8 -12 -5 3 -6 10 -3 16 4 6 1 8 -7 6 -8 -3 -13 -11 -11 -17 1 -6 -1 -10 -5
-10 -22 4 -25 -3 -7 -16 10 -8 15 -14 9 -13 -5 1 -20 -3 -32 -10 -12 -6 -30
-9 -40 -5 -14 5 -13 2 5 -14 27 -25 28 -35 1 -51 -19 -12 -19 -11 -9 7 9 17 8
20 -7 14 -12 -5 -15 -2 -10 10 4 11 1 17 -9 17 -8 0 -12 -4 -9 -10 3 -5 1 -10
-4 -10 -6 0 -11 -7 -11 -15 0 -8 5 -15 11 -15 5 0 7 5 4 10 -3 6 -2 10 3 10 5
0 12 -12 15 -26 3 -18 1 -22 -6 -15 -14 14 -37 14 -37 1 0 -5 6 -10 14 -10 9
0 13 -10 12 -25 -1 -22 -5 -25 -23 -20 -18 4 -21 2 -17 -12 4 -13 1 -11 -8 3
-8 14 -19 19 -30 15 -13 -4 -15 -10 -8 -21 7 -11 10 -11 10 -2 0 7 5 10 11 7
6 -5 4 -12 -8 -21 -14 -11 -15 -13 -3 -14 11 0 9 -6 -8 -20 -13 -10 -29 -17
-36 -14 -8 3 -17 0 -22 -7 -4 -7 -3 -10 4 -5 6 3 14 1 18 -5 4 -7 3 -9 -4 -5
-6 3 -13 2 -17 -4 -3 -5 -1 -10 4 -10 6 0 11 -5 11 -12 0 -7 -6 -6 -17 4 -24
21 -49 13 -31 -10 10 -12 10 -14 1 -8 -7 4 -13 3 -13 -2 0 -15 -41 -22 -62
-11 -25 14 -24 -6 3 -24 11 -8 16 -18 11 -21 -6 -3 -13 1 -16 10 -4 9 -9 14
-13 11 -3 -4 -12 1 -19 11 -12 15 -12 15 -7 -5 3 -13 10 -23 15 -23 5 0 6 -4
3 -10 -3 -5 -1 -19 5 -30 7 -13 7 -20 0 -20 -5 0 -10 6 -10 13 0 8 -4 7 -10
-3 -8 -11 -9 -8 -4 12 7 32 -4 57 -17 37 -5 -8 -3 -17 4 -21 9 -6 9 -8 0 -8
-18 0 -16 -20 4 -42 9 -10 13 -18 10 -18 -12 0 -46 43 -41 52 3 4 3 8 -1 8 -3
0 -10 -12 -15 -26 -6 -14 -14 -23 -19 -20 -26 17 -60 -31 -38 -53 8 -8 8 -11
-1 -12 -7 -1 -16 -3 -22 -4 -5 -1 -13 -3 -16 -4 -4 0 0 -9 7 -18 12 -15 12
-16 -6 -11 -11 3 -29 9 -39 14 -16 6 -18 4 -13 -10 4 -9 3 -15 -1 -12 -4 2
-16 -3 -27 -11 -19 -15 -19 -15 5 -8 24 7 24 7 5 -8 -15 -12 -23 -13 -34 -4
-12 10 -13 9 -6 -2 6 -11 3 -13 -12 -9 -11 3 -28 -1 -39 -10 -13 -10 -14 -13
-3 -9 9 3 22 1 30 -5 11 -8 11 -9 -2 -5 -9 3 -26 -1 -37 -9 -15 -10 -23 -11
-28 -3 -4 7 -12 0 -19 -18 -10 -24 -18 -30 -38 -28 -20 2 -24 -1 -20 -16 3
-10 0 -19 -6 -19 -6 0 -11 4 -11 8 0 4 -9 8 -20 8 -10 0 -17 -2 -15 -5 3 -2 0
-10 -5 -17 -8 -8 -6 -16 5 -27 9 -10 11 -18 5 -22 -5 -3 -10 -2 -10 4 0 6 -8
8 -17 5 -15 -5 -16 -4 -3 5 8 6 13 11 10 12 -3 0 -12 2 -21 4 -9 1 -24 -8 -34
-21 -10 -13 -22 -24 -28 -24 -5 0 -4 7 3 15 7 8 8 15 3 15 -5 0 -15 -12 -22
-26 -10 -22 -9 -25 2 -21 8 3 14 0 14 -7 0 -6 -8 -12 -17 -12 -14 0 -17 7 -14
31 2 16 1 24 -2 18 -3 -7 -14 -13 -25 -13 -12 0 -16 -5 -13 -15 4 -8 2 -15 -4
-15 -5 0 -15 7 -22 15 -7 8 -17 15 -23 15 -6 0 -3 -6 8 -13 21 -16 12 -39 -13
-35 -11 2 -16 -3 -14 -14 2 -10 -2 -18 -8 -18 -5 0 -10 -7 -10 -16 0 -8 -5
-12 -10 -9 -7 4 -7 12 0 25 7 14 6 23 -6 34 -22 22 -31 20 -11 -2 14 -16 15
-21 3 -37 -10 -14 -15 -15 -21 -5 -6 9 -4 11 5 5 9 -6 11 -4 5 4 -5 9 -12 7
-27 -8 -10 -12 -23 -19 -29 -16 -5 3 -16 2 -25 -3 -15 -8 -15 -10 0 -15 10 -4
15 -3 12 2 -3 5 5 8 19 7 14 0 25 -2 25 -3 0 -9 -73 -33 -96 -31 -37 2 -57 -9
-50 -29 5 -12 0 -14 -24 -11 -27 4 -29 2 -26 -19 3 -13 0 -23 -5 -23 -5 0 -9
8 -9 18 0 14 -2 15 -10 2 -5 -8 -10 -11 -10 -5 0 5 -5 4 -12 -3 -15 -15 -32
-16 -22 -1 10 16 -29 -6 -46 -26 -12 -14 -15 -14 -31 1 -12 11 -19 13 -19 5 0
-7 -5 -9 -10 -6 -6 4 -9 1 -8 -7 2 -9 -6 -12 -24 -10 -16 1 -28 -2 -28 -8 0
-6 -4 -9 -9 -6 -5 4 -7 -4 -3 -16 3 -12 1 -19 -4 -15 -5 3 -14 -10 -20 -28 -6
-19 -7 -32 -2 -29 4 3 8 1 8 -4 0 -6 -7 -12 -15 -16 -8 -3 -15 -15 -15 -26 0
-11 -4 -20 -9 -20 -12 0 -26 -68 -45 -220 -18 -136 -25 -175 -31 -168 -12 11
-15 224 -5 294 6 44 13 102 16 129 9 83 61 312 105 455 63 211 135 393 216
549 56 110 71 147 62 155 -9 8 -10 8 -5 -1 3 -6 -7 -31 -23 -55 -16 -24 -39
-63 -52 -88 -13 -25 -26 -47 -29 -50 -15 -11 -60 -99 -83 -160 -14 -36 -41
-107 -61 -159 -31 -79 -84 -253 -141 -466 -34 -126 -70 -401 -78 -600 -13
-289 38 -708 120 -999 75 -265 189 -535 327 -778 57 -99 229 -350 270 -392 17
-18 78 -85 136 -150 171 -190 408 -388 635 -530 84 -53 355 -191 470 -239 291
-123 622 -215 885 -246 371 -44 628 -36 1115 34 11 1 20 3 20 4 0 1 16 4 35 7
64 7 159 39 298 100 18 8 40 14 50 14 25 1 127 47 114 51 -6 2 54 45 135 94
80 50 179 110 219 135 40 25 89 62 110 83 20 20 41 37 46 37 4 0 16 6 25 14
10 8 54 44 98 79 130 104 325 298 436 433 57 70 104 130 104 135 0 5 8 18 19
30 44 52 222 355 287 489 39 80 77 158 85 173 8 16 14 36 14 45 0 9 11 39 25
66 14 27 25 54 24 60 -3 26 2 37 13 30 6 -4 8 -3 5 3 -3 5 7 50 24 99 50 149
84 310 94 444 3 36 10 99 15 140 17 125 23 455 11 610 -23 298 -57 479 -138
725 -122 376 -240 607 -479 942 -272 384 -688 737 -1090 927 -17 8 -36 22 -44
30 -7 9 -20 16 -29 16 -9 0 -21 4 -26 9 -17 16 -307 128 -390 151 -279 77
-477 111 -719 126 -166 9 -291 10 -406 3z m-315 -85 c-27 -7 -59 -13 -70 -13
-24 1 71 26 100 27 11 0 -2 -6 -30 -14z m-240 -214 c3 -5 1 -10 -4 -10 -6 0
-11 5 -11 10 0 6 2 10 4 10 3 0 8 -4 11 -10z m-51 -149 c3 -5 -1 -14 -8 -20
-12 -10 -13 -8 -9 8 6 23 9 25 17 12z m-114 -311 c0 -5 -5 -10 -11 -10 -5 0
-7 5 -4 10 3 6 8 10 11 10 2 0 4 -4 4 -10z m-90 -220 c0 -11 -4 -20 -9 -20 -5
0 -7 9 -4 20 3 11 7 20 9 20 2 0 4 -9 4 -20z m-35 -69 c3 -5 2 -12 -3 -15 -5
-3 -9 1 -9 9 0 17 3 19 12 6z m-101 -176 c-4 -8 -11 -12 -16 -9 -6 4 -5 10 3
15 19 12 19 11 13 -6z m-49 -45 c-3 -5 -10 -10 -16 -10 -5 0 -9 5 -9 10 0 6 7
10 16 10 8 0 12 -4 9 -10z m-117 -193 c2 -9 -2 -17 -8 -17 -7 0 -10 6 -7 14 3
8 2 17 -4 20 -5 2 -4 3 3 2 7 -1 14 -10 16 -19z m-421 -399 c-3 -8 -6 -5 -6 6
-1 11 2 17 5 13 3 -3 4 -12 1 -19z m-55 -10 c-7 -7 -12 -8 -12 -2 0 14 12 26
19 19 2 -3 -1 -11 -7 -17z m19 -15 c-12 -20 -14 -14 -5 12 4 9 9 14 11 11 3
-2 0 -13 -6 -23z m-91 -77 c0 -2 -7 -7 -16 -10 -8 -3 -12 -2 -9 4 6 10 25 14
25 6z m-43 -51 c0 -8 -4 -12 -9 -9 -5 3 -6 10 -3 15 9 13 12 11 12 -6z m-103
-43 c3 -5 -1 -9 -9 -9 -8 0 -12 4 -9 9 3 4 7 8 9 8 2 0 6 -4 9 -8z m-34 -23
c0 -6 -4 -7 -10 -4 -5 3 -10 11 -10 16 0 6 5 7 10 4 6 -3 10 -11 10 -16z
m-290 -154 c-7 -9 -15 -13 -19 -10 -3 3 1 10 9 15 21 14 24 12 10 -5z m2523
-11 c56 -9 106 -21 112 -28 5 -7 42 -23 80 -36 159 -52 282 -144 404 -300 84
-106 147 -261 175 -429 34 -204 14 -358 -70 -531 -31 -63 -71 -136 -90 -162
-37 -52 -38 -58 -5 -29 74 65 166 226 212 374 18 57 28 77 41 77 14 0 16 -6
12 -32 -20 -110 -69 -269 -105 -339 -50 -99 -148 -227 -204 -265 -17 -11 -53
-44 -79 -72 -33 -35 -73 -64 -123 -88 -41 -19 -77 -33 -80 -30 -3 3 2 8 11 12
9 3 16 13 16 21 0 8 5 11 12 7 7 -4 8 -3 4 4 -4 7 -15 12 -24 12 -16 1 -16 1
0 11 10 5 22 19 28 29 9 16 8 18 -6 13 -12 -4 -15 -3 -10 5 4 7 13 12 19 12
16 1 97 75 97 89 0 7 -9 3 -21 -7 -11 -11 -84 -51 -162 -90 -159 -79 -252
-103 -415 -104 -149 0 -261 25 -417 97 -165 75 -170 78 -265 175 -137 139
-193 242 -252 465 -27 106 -30 335 -5 440 21 88 57 185 68 185 4 0 11 10 14
22 21 65 227 317 261 318 6 0 18 8 28 19 9 10 34 26 56 36 22 10 37 22 33 28
-3 6 -1 7 5 3 6 -4 28 2 49 12 167 84 378 111 596 76z m-2553 -15 c0 -6 -5 -7
-11 -4 -6 4 -17 -1 -25 -11 -16 -20 -8 2 9 23 10 14 27 8 27 -8z m2697 -15
c-3 -3 -12 -4 -19 -1 -8 3 -5 6 6 6 11 1 17 -2 13 -5z m-2923 -99 c-3 -8 -12
-11 -20 -8 -10 4 -11 9 -4 18 5 6 6 16 2 21 -4 4 1 3 10 -5 9 -7 14 -19 12
-26z m-179 -55 c-3 -5 -11 -10 -16 -10 -6 0 -7 5 -4 10 3 6 11 10 16 10 6 0 7
-4 4 -10z m-65 -19 c0 -6 -4 -12 -8 -15 -5 -3 -9 1 -9 9 0 8 4 15 9 15 4 0 8
-4 8 -9z"/>
<path d="M3345 8100 c-3 -6 1 -7 9 -4 18 7 21 14 7 14 -6 0 -13 -4 -16 -10z"/>
<path d="M4009 7803 c-13 -16 -12 -17 4 -4 9 7 17 15 17 17 0 8 -8 3 -21 -13z"/>
<path d="M4030 7731 c0 -7 -5 -9 -12 -5 -10 5 -10 4 -1 -6 10 -11 9 -16 -5
-26 -15 -12 -14 -12 6 -7 28 7 39 30 23 46 -8 8 -11 8 -11 -2z"/>
<path d="M3962 7585 c-11 -12 -10 -15 3 -15 8 0 15 7 15 15 0 18 -2 18 -18 0z"/>
<path d="M3925 7520 c-3 -5 -2 -10 4 -10 5 0 13 5 16 10 3 6 2 10 -4 10 -5 0
-13 -4 -16 -10z"/>
<path d="M3930 7455 c0 -8 4 -15 8 -15 5 0 9 7 9 15 0 8 -4 15 -9 15 -4 0 -8
-7 -8 -15z"/>
<path d="M3821 7263 c-1 -6 -4 -20 -7 -30 -5 -17 -5 -17 6 0 6 10 9 23 6 30
-3 9 -5 9 -5 0z"/>
<path d="M3720 7146 c0 -2 9 -6 20 -9 11 -3 18 -1 14 4 -5 9 -34 13 -34 5z"/>
<path d="M3724 7105 c3 -8 -2 -21 -10 -30 -9 -8 -11 -15 -6 -15 14 0 29 22 29
43 0 9 -5 17 -10 17 -5 0 -7 -7 -3 -15z"/>
<path d="M3675 7040 c-3 -5 -1 -10 4 -10 6 0 11 5 11 10 0 6 -2 10 -4 10 -3 0
-8 -4 -11 -10z"/>
<path d="M2329 6983 c-13 -16 -12 -17 4 -4 9 7 17 15 17 17 0 8 -8 3 -21 -13z"/>
<path d="M3610 6953 c0 -15 18 -35 23 -27 3 5 -1 15 -9 22 -8 7 -14 9 -14 5z"/>
<path d="M3570 6910 c0 -13 18 -22 24 -11 3 5 -1 11 -9 15 -8 3 -15 1 -15 -4z"/>
<path d="M2100 6839 c0 -5 5 -7 10 -4 6 3 10 8 10 11 0 2 -4 4 -10 4 -5 0 -10
-5 -10 -11z"/>
<path d="M2075 6820 c3 -5 8 -10 11 -10 2 0 4 5 4 10 0 6 -5 10 -11 10 -5 0
-7 -4 -4 -10z"/>
<path d="M1986 6713 c-6 -14 -5 -15 5 -6 7 7 10 15 7 18 -3 3 -9 -2 -12 -12z"/>
<path d="M2025 6720 c-3 -6 1 -7 9 -4 18 7 21 14 7 14 -6 0 -13 -4 -16 -10z"/>
<path d="M3430 6725 c0 -2 13 -8 29 -13 22 -8 31 -7 34 1 3 8 -8 12 -29 13
-19 1 -34 0 -34 -1z"/>
<path d="M1994 6690 c-23 -9 -37 -26 -40 -48 -2 -8 -9 -21 -17 -30 -19 -23
-69 -122 -61 -122 4 0 2 -6 -4 -12 -29 -36 -101 -235 -81 -222 5 3 9 16 9 29
0 13 5 25 11 27 5 2 12 10 14 18 9 43 18 59 29 53 6 -3 8 -3 4 2 -10 10 28
107 47 121 9 7 18 22 20 34 8 44 17 61 28 57 15 -4 42 23 43 45 1 11 -5 14
-20 11 -15 -4 -11 1 12 16 17 11 32 23 32 26 0 6 1 6 -26 -5z m-22 -72 c-7 -7
-12 -8 -12 -2 0 14 12 26 19 19 2 -3 -1 -11 -7 -17z"/>
<path d="M3390 6670 c-12 -8 -10 -10 8 -10 13 0 20 4 17 10 -7 12 -6 12 -25 0z"/>
<path d="M3386 6642 c-2 -4 4 -9 15 -9 10 -1 19 2 19 8 0 11 -27 12 -34 1z"/>
<path d="M3335 6610 c3 -5 8 -10 11 -10 2 0 4 5 4 10 0 6 -5 10 -11 10 -5 0
-7 -4 -4 -10z"/>
<path d="M3135 6501 c-3 -5 -2 -12 3 -15 5 -3 9 1 9 9 0 17 -3 19 -12 6z"/>
<path d="M3052 6372 c-9 -19 -9 -29 -1 -36 9 -8 10 -7 4 3 -5 9 -2 18 8 26 8
6 12 16 9 22 -5 7 -12 1 -20 -15z"/>
<path d="M2936 6308 c3 -5 10 -6 15 -3 13 9 11 12 -6 12 -8 0 -12 -4 -9 -9z"/>
<path d="M2086 5867 c3 -10 9 -15 12 -12 3 3 0 11 -7 18 -10 9 -11 8 -5 -6z"/>
<path d="M4060 9253 c5 -2 8 -9 4 -14 -3 -5 0 -9 6 -9 15 0 7 23 -8 26 -7 1
-8 0 -2 -3z"/>
<path d="M3648 9243 c7 -3 16 -2 19 1 4 3 -2 6 -13 5 -11 0 -14 -3 -6 -6z"/>
<path d="M4063 9205 c-7 -8 -9 -16 -4 -19 5 -3 12 1 15 10 3 8 11 12 17 8 8
-4 9 -3 5 4 -9 15 -18 15 -33 -3z"/>
<path d="M4070 8720 c0 -5 5 -10 11 -10 5 0 7 5 4 10 -3 6 -8 10 -11 10 -2 0
-4 -4 -4 -10z"/>
<path d="M1160 5670 c0 -5 5 -10 11 -10 5 0 7 5 4 10 -3 6 -8 10 -11 10 -2 0
-4 -4 -4 -10z"/>
<path d="M865 5589 c-4 -6 -5 -12 -2 -15 2 -3 7 2 10 11 7 17 1 20 -8 4z"/>
<path d="M777 5559 c4 -13 8 -18 11 -10 2 7 -1 18 -6 23 -8 8 -9 4 -5 -13z"/>
</g>
</svg>
